<svg width="800" height="400" xmlns="http://www.w3.org/2000/svg">
  <defs>
    <!-- Heart gradient - more subtle beige tones -->
    <linearGradient id="heartGrad" x1="50%" y1="0%" x2="50%" y2="100%">
      <stop offset="0%" style="stop-color:#E8DCC4;stop-opacity:1" />
      <stop offset="40%" style="stop-color:#D4C4B0;stop-opacity:1" />
      <stop offset="70%" style="stop-color:#C0A896;stop-opacity:1" />
      <stop offset="100%" style="stop-color:#8B7355;stop-opacity:1" />
    </linearGradient>
    
    <!-- Shadow -->
    <filter id="shadow" x="-50%" y="-50%" width="200%" height="200%">
      <feGaussianBlur in="SourceAlpha" stdDeviation="6"/>
      <feOffset dx="0" dy="4" result="offsetblur"/>
      <feComponentTransfer>
        <feFuncA type="linear" slope="0.2"/>
      </feComponentTransfer>
      <feMerge>
        <feMergeNode/>
        <feMergeNode in="SourceGraphic"/>
      </feMerge>
    </filter>
  </defs>
  
  <!-- Background geometric pattern - all beiges -->
  <rect width="800" height="400" fill="#F5F1E8"/>
  
  <path d="M 0 0 L 500 0 L 0 400 Z" fill="#E8DCC4" opacity="0.6"/>
  <path d="M 800 0 L 800 250 L 500 0 Z" fill="#D4C4B0" opacity="0.5"/>
  <path d="M 0 400 L 300 400 L 0 200 Z" fill="#C0A896" opacity="0.4"/>
  <path d="M 800 250 L 800 400 L 300 400 Z" fill="#E8DCC4" opacity="0.4"/>
  <path d="M 300 400 L 800 250 L 800 400 Z" fill="#F5F1E8" opacity="0.7"/>
  
  <!-- Additional subtle accent triangles -->
  <path d="M 150 0 L 400 0 L 150 200 Z" fill="#FFFDF9" opacity="0.5"/>
  <path d="M 800 200 L 800 400 L 550 200 Z" fill="#9CAF88" opacity="0.15"/>
  
  <!-- Card/App icon background - cream white -->
  <rect x="300" y="100" width="200" height="200" rx="40" fill="#FFFDF9" opacity="0.98" filter="url(#shadow)"/>
  
  <!-- Heart shape -->
  <g transform="translate(400, 160)">
    <path d="M 0 20 
             C -10 -10, -40 -20, -50 -5
             C -60 10, -50 30, -30 50
             C -20 60, -10 65, 0 75
             C 10 65, 20 60, 30 50
             C 50 30, 60 10, 50 -5
             C 40 -20, 10 -10, 0 20 Z" 
          fill="url(#heartGrad)" 
          filter="url(#shadow)"/>
    
    <!-- Subtle shine on heart -->
    <ellipse cx="-15" cy="-5" rx="12" ry="15" fill="#FFFDF9" opacity="0.5"/>
  </g>
  
  <!-- Decorative dots in sage green accent -->
  <circle cx="320" cy="120" r="4" fill="#9CAF88" opacity="0.4"/>
  <circle cx="480" cy="280" r="3" fill="#9CAF88" opacity="0.3"/>
  <circle cx="460" cy="130" r="3" fill="#8B7355" opacity="0.3"/>
  
</svg>
