<svg width="1000" height="1000" xmlns="http://www.w3.org/2000/svg">
  <defs>
    <!-- Background gradient - diagonal bands -->
    <linearGradient id="bg1" x1="0%" y1="0%" x2="100%" y2="100%">
      <stop offset="0%" style="stop-color:#F5E6D3;stop-opacity:1" />
      <stop offset="50%" style="stop-color:#E8D4C0;stop-opacity:1" />
      <stop offset="100%" style="stop-color:#D9C4B0;stop-opacity:1" />
    </linearGradient>
    
    <!-- Heart gradient - soft beige tones -->
    <linearGradient id="heartGrad" x1="50%" y1="0%" x2="50%" y2="100%">
      <stop offset="0%" style="stop-color:#F0E0CC;stop-opacity:1" />
      <stop offset="30%" style="stop-color:#E5D1BC;stop-opacity:1" />
      <stop offset="70%" style="stop-color:#D9C4B0;stop-opacity:1" />
      <stop offset="100%" style="stop-color:#C9B49F;stop-opacity:1" />
    </linearGradient>
    
    <!-- Soft shadow for 3D effect -->
    <filter id="cardShadow" x="-50%" y="-50%" width="200%" height="200%">
      <feGaussianBlur in="SourceAlpha" stdDeviation="15"/>
      <feOffset dx="0" dy="10" result="offsetblur"/>
      <feComponentTransfer>
        <feFuncA type="linear" slope="0.3"/>
      </feComponentTransfer>
      <feMerge>
        <feMergeNode/>
        <feMergeNode in="SourceGraphic"/>
      </feMerge>
    </filter>
    
    <filter id="innerShadow" x="-50%" y="-50%" width="200%" height="200%">
      <feGaussianBlur in="SourceAlpha" stdDeviation="8"/>
      <feOffset dx="0" dy="5" result="offsetblur"/>
      <feComponentTransfer>
        <feFuncA type="linear" slope="0.2"/>
      </feComponentTransfer>
      <feMerge>
        <feMergeNode/>
        <feMergeNode in="SourceGraphic"/>
      </feMerge>
    </filter>
  </defs>
  
  <!-- Background geometric pattern - diagonal stripes -->
  <rect width="1000" height="1000" fill="#EFE0D0"/>
  
  <!-- Large diagonal bands -->
  <path d="M 0 0 L 700 0 L 0 700 Z" fill="#F5E6D3" opacity="0.8"/>
  <path d="M 1000 0 L 1000 300 L 700 0 Z" fill="#E0D0BD" opacity="0.7"/>
  <path d="M 0 700 L 300 1000 L 0 1000 Z" fill="#D9C4B0" opacity="0.8"/>
  <path d="M 1000 300 L 1000 1000 L 300 1000 Z" fill="#E8D4C0" opacity="0.6"/>
  
  <!-- Additional accent triangles -->
  <path d="M 200 0 L 500 0 L 200 300 Z" fill="#F8F0E8" opacity="0.6"/>
  <path d="M 1000 500 L 1000 800 L 700 500 Z" fill="#CDB9A5" opacity="0.5"/>
  
  <!-- Card/App icon with 3D effect -->
  <g filter="url(#cardShadow)">
    <rect x="350" y="350" width="300" height="300" rx="65" fill="#FFFCF7" opacity="0.98"/>
  </g>
  
  <!-- Inner card glow -->
  <rect x="355" y="355" width="290" height="290" rx="62" fill="#FFF9F3" opacity="0.5"/>
  
  <!-- Heart shape with gradient -->
  <g transform="translate(500, 470)" filter="url(#innerShadow)">
    <path d="M 0 30 
             C -15 -15, -55 -30, -70 -8
             C -85 14, -70 45, -45 75
             C -30 90, -15 100, 0 115
             C 15 100, 30 90, 45 75
             C 70 45, 85 14, 70 -8
             C 55 -30, 15 -15, 0 30 Z" 
          fill="url(#heartGrad)"/>
    
    <!-- Subtle highlight on heart for depth -->
    <ellipse cx="-20" cy="-8" rx="18" ry="25" fill="#FFFCF7" opacity="0.35"/>
    
    <!-- Very subtle inner shadow line on heart -->
    <path d="M 0 30 
             C -15 -15, -55 -30, -70 -8
             C -85 14, -70 45, -45 75
             C -30 90, -15 100, 0 115
             C 15 100, 30 90, 45 75
             C 70 45, 85 14, 70 -8
             C 55 -30, 15 -15, 0 30 Z" 
          fill="none" 
          stroke="#C9B49F" 
          stroke-width="1" 
          opacity="0.3"/>
  </g>
  
  <!-- Soft corner accents on card -->
  <circle cx="380" cy="380" r="3" fill="#E5D1BC" opacity="0.4"/>
  <circle cx="620" cy="620" r="3" fill="#E5D1BC" opacity="0.4"/>
  
</svg>
