<svg width="1000" height="1000" xmlns="http://www.w3.org/2000/svg">
  <defs>
    <!-- Background gradient - diagonal bands -->
    <linearGradient id="bg1" x1="0%" y1="0%" x2="100%" y2="100%">
      <stop offset="0%" style="stop-color:#F5E6D3;stop-opacity:1" />
      <stop offset="50%" style="stop-color:#E8D4C0;stop-opacity:1" />
      <stop offset="100%" style="stop-color:#D9C4B0;stop-opacity:1" />
    </linearGradient>
    
    <!-- Soft shadow for 3D effect -->
    <filter id="cardShadow" x="-50%" y="-50%" width="200%" height="200%">
      <feGaussianBlur in="SourceAlpha" stdDeviation="15"/>
      <feOffset dx="0" dy="10" result="offsetblur"/>
      <feComponentTransfer>
        <feFuncA type="linear" slope="0.3"/>
      </feComponentTransfer>
      <feMerge>
        <feMergeNode/>
        <feMergeNode in="SourceGraphic"/>
      </feMerge>
    </filter>
  </defs>
  
  <!-- Background geometric pattern - diagonal stripes -->
  <rect width="1000" height="1000" fill="#EFE0D0"/>
  
  <!-- Large diagonal bands -->
  <path d="M 0 0 L 700 0 L 0 700 Z" fill="#F5E6D3" opacity="0.8"/>
  <path d="M 1000 0 L 1000 300 L 700 0 Z" fill="#E0D0BD" opacity="0.7"/>
  <path d="M 0 700 L 300 1000 L 0 1000 Z" fill="#D9C4B0" opacity="0.8"/>
  <path d="M 1000 300 L 1000 1000 L 300 1000 Z" fill="#E8D4C0" opacity="0.6"/>
  
  <!-- Additional accent triangles -->
  <path d="M 200 0 L 500 0 L 200 300 Z" fill="#F8F0E8" opacity="0.6"/>
  <path d="M 1000 500 L 1000 800 L 700 500 Z" fill="#CDB9A5" opacity="0.5"/>
  
  <!-- Card/App icon with 3D effect -->
  <g filter="url(#cardShadow)">
    <rect x="350" y="350" width="300" height="300" rx="65" fill="#FFFCF7" opacity="0.98"/>
  </g>
  
  <!-- Inner card glow -->
  <rect x="355" y="355" width="290" height="290" rx="62" fill="#FFF9F3" opacity="0.5"/>
  
  <!-- Lightbulb and book icon -->
  <g transform="translate(500, 500)">
    
    <!-- CORRECT OPEN BOOK with colored spine -->
    <g transform="translate(0, 42)">
      
      <!-- SPINE FILL (behind everything) -->
      <path d="M 0 -8 Q -8 10, 0 42 Q 8 10, 0 -8 Z" 
            fill="#8B7355"/>
      
      <!-- Left page - outer left edge, bottom, curved inner edge -->
      <path d="M -60 -15 L -60 30 L -55 35 Q -30 40, 0 42" 
            stroke="#8B7355" 
            stroke-width="4.5" 
            fill="none" 
            stroke-linecap="square" 
            stroke-linejoin="miter"/>
      
      <!-- Left page inner curve -->
      <path d="M -55 -15 Q -30 -10, 0 -8" 
            stroke="#8B7355" 
            stroke-width="4.5" 
            fill="none" 
            stroke-linecap="round"/>
      
      <!-- Left page connecting line bottom to curve -->
      <path d="M 0 -8 Q -15 15, 0 42" 
            stroke="#8B7355" 
            stroke-width="4.5" 
            fill="none"/>
      
      <!-- Right page - outer right edge, bottom, curved inner edge -->
      <path d="M 60 -15 L 60 30 L 55 35 Q 30 40, 0 42" 
            stroke="#8B7355" 
            stroke-width="4.5" 
            fill="none" 
            stroke-linecap="square" 
            stroke-linejoin="miter"/>
      
      <!-- Right page inner curve -->
      <path d="M 55 -15 Q 30 -10, 0 -8" 
            stroke="#8B7355" 
            stroke-width="4.5" 
            fill="none" 
            stroke-linecap="round"/>
      
      <!-- Right page connecting line bottom to curve -->
      <path d="M 0 -8 Q 15 15, 0 42" 
            stroke="#8B7355" 
            stroke-width="4.5" 
            fill="none"/>
    </g>
    
    <!-- Lightbulb above book -->
    <g transform="translate(0, -38)">
      <!-- Bulb circle -->
      <circle cx="0" cy="0" r="22" fill="#E5D1BC" opacity="0.4"/>
      <circle cx="0" cy="0" r="22" fill="none" stroke="#8B7355" stroke-width="4.5"/>
      
      <!-- Simple filament -->
      <path d="M -5 3 L 0 -8 L 5 3" 
            stroke="#8B7355" 
            stroke-width="2.5" 
            fill="none" 
            stroke-linecap="round" 
            stroke-linejoin="round"/>
      
      <!-- Bulb base -->
      <rect x="-9" y="19" width="18" height="3" fill="#8B7355" rx="1"/>
      <rect x="-9" y="23" width="18" height="3" fill="#8B7355" rx="1"/>
      <rect x="-7" y="27" width="14" height="3" fill="#8B7355" rx="1"/>
      
      <!-- Light rays -->
      <g stroke="#8B7355" stroke-width="3" stroke-linecap="round">
        <line x1="0" y1="-27" x2="0" y2="-35"/>
        <line x1="-19" y1="-13" x2="-26" y2="-20"/>
        <line x1="19" y1="-13" x2="26" y2="-20"/>
        <line x1="-22" y1="3" x2="-30" y2="3"/>
        <line x1="22" y1="3" x2="30" y2="3"/>
      </g>
    </g>
    
  </g>
  
  <!-- Soft corner accents on card -->
  <circle cx="380" cy="380" r="3" fill="#E5D1BC" opacity="0.4"/>
  <circle cx="620" cy="620" r="3" fill="#E5D1BC" opacity="0.4"/>
  
</svg>
